<svg id="레이어_1" data-name="레이어 1" xmlns="http://www.w3.org/2000/svg" viewBox="0 0 1920 278"><defs><style>.cls-1{fill:#900724;}.cls-2{fill:#009e00;}.cls-3{fill:#1d0fbe;}.cls-4{fill:#fbfb10;}.cls-5{font-size:166px;font-family:NotoSansCJKkr-Bold-KSCpc-EUC-H, Noto Sans CJK KR;letter-spacing:0.04em;}.cls-6{font-size:100px;letter-spacing:0.04em;}.cls-7{letter-spacing:0.12em;}</style></defs><polygon class="cls-1" points="248.75 0.33 112.45 0.33 112.45 0.16 -0.4 132.02 -0.4 143.75 112.45 278.43 112.45 278.6 248.75 278.6 361.6 146.75 361.6 135.02 248.75 0.33"/><polygon class="cls-2" points="299.8 135.02 362 135.02 250.51 0.33 187.68 0.33 299.8 135.02"/><polygon class="cls-2" points="112.7 278.6 175.22 278.6 63.16 143.92 0.01 143.92 112.7 278.6"/><polygon class="cls-3" points="175.3 0.33 174.33 0.33 112.45 0.33 113.42 0.37 112.33 0.35 0.01 132.19 61.38 133.26 174.33 1.44 174.2 1.44 175.3 0.33"/><polygon class="cls-3" points="249.62 278.2 187.27 278.2 299.02 146.75 362 146.75 249.62 278.2"/><circle class="cls-4" cx="181.21" cy="82.04" r="19.41"/><path class="cls-4" d="M261.29,129.76V112.37h-161v17.39h35.06a30.13,30.13,0,1,0,21.7,0h52.15L179,160l12.48,12.48,17-17h20.83l-35.5,35.5,11,11,49.34-49.35L244.1,142.5H220.44l12.74-12.74Zm-115.07,42a14.28,14.28,0,1,1,14.27-14.27A14.27,14.27,0,0,1,146.22,171.75Z"/><text class="cls-5" transform="translate(437.71 202.03)">2-6 <tspan class="cls-6" x="319.21" y="0"> </tspan><tspan class="cls-7" x="345.61" y="0">학급프로젝트</tspan></text></svg>